<?xml version="1.0" encoding="utf-8"?>
<svg width="168" height="27" viewBox="0 0 168 27" fill="none" xmlns="http://www.w3.org/2000/svg" xmlns:bx="https://boxy-svg.com">
  <g filter="url(#filter0_d_2164_2166)">
    <path d="M31.4988 1.94103C31.5852 1.94103 31.6553 1.86815 31.6553 1.77825C31.6553 1.68836 31.5852 1.61548 31.4988 1.61548C31.4124 1.61548 31.3423 1.68836 31.3423 1.77825C31.3423 1.86815 31.4124 1.94103 31.4988 1.94103Z" fill="url(#paint1_linear_2164_2166)"/>
  </g>
  <g filter="url(#filter1_d_2164_2166)">
    <path d="M5.68436 6.03804C5.90861 6.03804 6.09039 5.84898 6.09039 5.61576C6.09039 5.38254 5.90861 5.19348 5.68436 5.19348C5.46011 5.19348 5.27832 5.38254 5.27832 5.61576C5.27832 5.84898 5.46011 6.03804 5.68436 6.03804Z" fill="url(#paint2_linear_2164_2166)"/>
  </g>
  <g filter="url(#filter2_d_2164_2166)">
    <path d="M1.50223 18.4063C1.72648 18.4063 1.90827 18.2173 1.90827 17.984C1.90827 17.7508 1.72648 17.5618 1.50223 17.5618C1.27798 17.5618 1.09619 17.7508 1.09619 17.984C1.09619 18.2173 1.27798 18.4063 1.50223 18.4063Z" fill="url(#paint3_linear_2164_2166)"/>
  </g>
  <g filter="url(#filter3_d_2164_2166)">
    <path d="M25.5428 21.8016C25.767 21.8016 25.9488 21.6125 25.9488 21.3793C25.9488 21.1461 25.767 20.957 25.5428 20.957C25.3185 20.957 25.1367 21.1461 25.1367 21.3793C25.1367 21.6125 25.3185 21.8016 25.5428 21.8016Z" fill="url(#paint4_linear_2164_2166)"/>
  </g>
  <g filter="url(#filter4_d_2164_2166)">
    <path d="M6.52761 14.6515C6.61405 14.6515 6.68412 14.5786 6.68412 14.4887C6.68412 14.3988 6.61405 14.3259 6.52761 14.3259C6.44117 14.3259 6.37109 14.3988 6.37109 14.4887C6.37109 14.5786 6.44117 14.6515 6.52761 14.6515Z" fill="url(#paint5_linear_2164_2166)"/>
  </g>
  <g filter="url(#filter5_d_2164_2166)">
    <path d="M12.5243 1.51158C12.6601 1.51158 12.7702 1.39706 12.7702 1.25579C12.7702 1.11452 12.6601 1 12.5243 1C12.3884 1 12.2783 1.11452 12.2783 1.25579C12.2783 1.39706 12.3884 1.51158 12.5243 1.51158Z" fill="url(#paint6_linear_2164_2166)"/>
  </g>
  <g filter="url(#filter6_d_2164_2166)">
    <path d="M3.22758 12.9061C3.14757 12.9187 3.07313 12.8679 3.04946 12.783C2.82758 12.0289 2.71089 11.9374 1.98526 11.965C1.90152 11.9675 1.8278 11.906 1.81574 11.8228C1.80352 11.7385 1.85569 11.6595 1.93609 11.6339C2.63013 11.4199 2.70486 11.3161 2.72206 10.5257C2.72411 10.438 2.77857 10.3669 2.85747 10.3545C2.93859 10.3417 3.01192 10.3929 3.03781 10.4773C3.2573 11.2306 3.37399 11.3221 4.09851 11.2946C4.18464 11.2929 4.25691 11.3525 4.26931 11.4379C4.28137 11.521 4.23141 11.5997 4.1488 11.6257C3.45397 11.8421 3.38019 11.9446 3.36521 12.7346C3.36111 12.8239 3.30537 12.894 3.22758 12.9061Z" fill="url(#paint7_linear_2164_2166)"/>
  </g>
  <path d="M 18.63 6.194 C 18.419 6.276 18.278 6.486 18.278 6.72 C 18.278 6.954 18.419 7.164 18.63 7.247 C 20.313 7.903 21.641 9.284 22.272 11.034 C 22.352 11.254 22.553 11.4 22.778 11.4 C 23.003 11.4 23.205 11.254 23.285 11.034 C 23.916 9.284 25.244 7.903 26.927 7.247 C 27.138 7.164 27.278 6.954 27.278 6.72 C 27.278 6.486 27.138 6.276 26.927 6.194 C 25.244 5.537 23.916 4.156 23.285 2.406 C 23.205 2.186 23.003 2.04 22.778 2.04 C 22.553 2.04 22.352 2.186 22.272 2.406 C 21.641 4.156 20.313 5.537 18.63 6.194 Z M 12.892 5.613 C 12.771 5.336 12.503 5.16 12.213 5.16 C 11.922 5.16 11.655 5.336 11.533 5.613 C 9.936 9.2 7.164 12.082 3.714 13.74 C 3.447 13.867 3.278 14.145 3.278 14.452 C 3.278 14.759 3.447 15.032 3.714 15.159 C 7.163 16.815 9.937 19.698 11.528 23.285 C 11.65 23.563 11.917 23.739 12.208 23.739 C 12.499 23.739 12.766 23.563 12.888 23.285 C 14.482 19.695 17.254 16.812 20.706 15.154 C 20.974 15.027 21.142 14.749 21.142 14.447 C 21.142 14.145 20.974 13.867 20.706 13.74 C 17.257 12.085 14.485 9.2 12.892 5.613 Z M 22.272 18.006 C 21.641 19.756 20.313 21.137 18.63 21.794 C 18.419 21.876 18.278 22.086 18.278 22.32 C 18.278 22.554 18.419 22.764 18.63 22.847 C 20.313 23.503 21.641 24.884 22.272 26.634 C 22.352 26.854 22.553 27 22.778 27 C 23.003 27 23.205 26.854 23.285 26.634 C 23.916 24.884 25.244 23.503 26.927 22.847 C 27.138 22.764 27.278 22.554 27.278 22.32 C 27.278 22.086 27.138 21.876 26.927 21.794 C 25.244 21.137 23.916 19.756 23.285 18.006 C 23.205 17.786 23.003 17.64 22.778 17.64 C 22.553 17.64 22.352 17.786 22.272 18.006 Z" style="fill: rgb(134, 140, 255);"/>
  <path d="M12.9717 16.0857C5.80757 18.6733 0.343109 21.7987 0.766469 23.0665C1.18983 24.3342 7.34069 23.2643 14.5048 20.6767C21.6689 18.0891 27.1334 14.9637 26.71 13.696C26.2866 12.4282 20.1358 13.4981 12.9717 16.0857Z" stroke="url(#paint9_linear_2164_2166)" stroke-width="0.549291"/>
  <g style="mix-blend-mode:screen" filter="url(#filter7_f_2164_2166)">
    <path d="M12.9717 16.0855C5.80757 18.6731 0.34311 21.7985 0.76647 23.0662C1.18983 24.334 7.34069 23.2641 14.5048 20.6765C21.6689 18.0889 27.1334 14.9635 26.71 13.6957C26.2866 12.4279 20.1358 13.4979 12.9717 16.0855Z" stroke="url(#paint10_linear_2164_2166)" stroke-width="0.549291"/>
  </g>
  <g filter="url(#filter8_d_2164_2166)">
    <path d="M23.872 7.36177C23.7616 7.34534 23.6827 7.24737 23.6838 7.12559C23.6787 6.03816 23.5595 5.86916 22.5907 5.60594C22.4792 5.57474 22.4053 5.46284 22.4211 5.34812C22.4372 5.23175 22.5363 5.14897 22.6522 5.14834C23.6504 5.15229 23.7888 5.046 24.1132 4.0094C24.1494 3.89443 24.2485 3.82298 24.3574 3.8392C24.4694 3.85589 24.5467 3.95363 24.5486 4.07593C24.551 5.16124 24.6701 5.33034 25.6374 5.59325C25.7518 5.62653 25.8245 5.735 25.8083 5.85294C25.7925 5.96765 25.6964 6.05096 25.5774 6.05116C24.5772 6.05012 24.4406 6.15496 24.1193 7.19204C24.0798 7.30821 23.9794 7.37778 23.872 7.36177Z" fill="url(#paint11_linear_2164_2166)"/>
  </g>
  <defs>
    <filter id="filter0_d_2164_2166" x="31.0008" y="1.27399" width="0.99596" height="1.00853" filterUnits="userSpaceOnUse" color-interpolation-filters="sRGB">
      <feFlood flood-opacity="0" result="BackgroundImageFix"/>
      <feColorMatrix in="SourceAlpha" type="matrix" values="0 0 0 0 0 0 0 0 0 0 0 0 0 0 0 0 0 0 127 0" result="hardAlpha"/>
      <feOffset/>
      <feGaussianBlur stdDeviation="0.170743"/>
      <feComposite in2="hardAlpha" operator="out"/>
      <feColorMatrix type="matrix" values="0 0 0 0 0.592157 0 0 0 0 0.392157 0 0 0 0 1 0 0 0 1 0"/>
      <feBlend mode="normal" in2="BackgroundImageFix" result="effect1_dropShadow_2164_2166"/>
      <feBlend mode="normal" in="SourceGraphic" in2="effect1_dropShadow_2164_2166" result="shape"/>
    </filter>
    <filter id="filter1_d_2164_2166" x="4.39242" y="4.30758" width="2.58381" height="2.6164" filterUnits="userSpaceOnUse" color-interpolation-filters="sRGB">
      <feFlood flood-opacity="0" result="BackgroundImageFix"/>
      <feColorMatrix in="SourceAlpha" type="matrix" values="0 0 0 0 0 0 0 0 0 0 0 0 0 0 0 0 0 0 127 0" result="hardAlpha"/>
      <feOffset/>
      <feGaussianBlur stdDeviation="0.442949"/>
      <feComposite in2="hardAlpha" operator="out"/>
      <feColorMatrix type="matrix" values="0 0 0 0 0.592157 0 0 0 0 0.392157 0 0 0 0 1 0 0 0 1 0"/>
      <feBlend mode="normal" in2="BackgroundImageFix" result="effect1_dropShadow_2164_2166"/>
      <feBlend mode="normal" in="SourceGraphic" in2="effect1_dropShadow_2164_2166" result="shape"/>
    </filter>
    <filter id="filter2_d_2164_2166" x="0.210293" y="16.6759" width="2.58381" height="2.6164" filterUnits="userSpaceOnUse" color-interpolation-filters="sRGB">
      <feFlood flood-opacity="0" result="BackgroundImageFix"/>
      <feColorMatrix in="SourceAlpha" type="matrix" values="0 0 0 0 0 0 0 0 0 0 0 0 0 0 0 0 0 0 127 0" result="hardAlpha"/>
      <feOffset/>
      <feGaussianBlur stdDeviation="0.442949"/>
      <feComposite in2="hardAlpha" operator="out"/>
      <feColorMatrix type="matrix" values="0 0 0 0 0.592157 0 0 0 0 0.392157 0 0 0 0 1 0 0 0 1 0"/>
      <feBlend mode="normal" in2="BackgroundImageFix" result="effect1_dropShadow_2164_2166"/>
      <feBlend mode="normal" in="SourceGraphic" in2="effect1_dropShadow_2164_2166" result="shape"/>
    </filter>
    <filter id="filter3_d_2164_2166" x="24.2508" y="20.0711" width="2.58381" height="2.6164" filterUnits="userSpaceOnUse" color-interpolation-filters="sRGB">
      <feFlood flood-opacity="0" result="BackgroundImageFix"/>
      <feColorMatrix in="SourceAlpha" type="matrix" values="0 0 0 0 0 0 0 0 0 0 0 0 0 0 0 0 0 0 127 0" result="hardAlpha"/>
      <feOffset/>
      <feGaussianBlur stdDeviation="0.442949"/>
      <feComposite in2="hardAlpha" operator="out"/>
      <feColorMatrix type="matrix" values="0 0 0 0 0.592157 0 0 0 0 0.392157 0 0 0 0 1 0 0 0 1 0"/>
      <feBlend mode="normal" in2="BackgroundImageFix" result="effect1_dropShadow_2164_2166"/>
      <feBlend mode="normal" in="SourceGraphic" in2="effect1_dropShadow_2164_2166" result="shape"/>
    </filter>
    <filter id="filter4_d_2164_2166" x="6.02961" y="13.9844" width="0.99596" height="1.00853" filterUnits="userSpaceOnUse" color-interpolation-filters="sRGB">
      <feFlood flood-opacity="0" result="BackgroundImageFix"/>
      <feColorMatrix in="SourceAlpha" type="matrix" values="0 0 0 0 0 0 0 0 0 0 0 0 0 0 0 0 0 0 127 0" result="hardAlpha"/>
      <feOffset/>
      <feGaussianBlur stdDeviation="0.170743"/>
      <feComposite in2="hardAlpha" operator="out"/>
      <feColorMatrix type="matrix" values="0 0 0 0 0.592157 0 0 0 0 0.392157 0 0 0 0 1 0 0 0 1 0"/>
      <feBlend mode="normal" in2="BackgroundImageFix" result="effect1_dropShadow_2164_2166"/>
      <feBlend mode="normal" in="SourceGraphic" in2="effect1_dropShadow_2164_2166" result="shape"/>
    </filter>
    <filter id="filter5_d_2164_2166" x="11.7417" y="0.463378" width="1.56494" height="1.58484" filterUnits="userSpaceOnUse" color-interpolation-filters="sRGB">
      <feFlood flood-opacity="0" result="BackgroundImageFix"/>
      <feColorMatrix in="SourceAlpha" type="matrix" values="0 0 0 0 0 0 0 0 0 0 0 0 0 0 0 0 0 0 127 0" result="hardAlpha"/>
      <feOffset/>
      <feGaussianBlur stdDeviation="0.268311"/>
      <feComposite in2="hardAlpha" operator="out"/>
      <feColorMatrix type="matrix" values="0 0 0 0 0.592157 0 0 0 0 0.392157 0 0 0 0 1 0 0 0 1 0"/>
      <feBlend mode="normal" in2="BackgroundImageFix" result="effect1_dropShadow_2164_2166"/>
      <feBlend mode="normal" in="SourceGraphic" in2="effect1_dropShadow_2164_2166" result="shape"/>
    </filter>
    <filter id="filter6_d_2164_2166" x="0.732341" y="9.55252" width="4.62028" height="4.71879" filterUnits="userSpaceOnUse" color-interpolation-filters="sRGB">
      <feFlood flood-opacity="0" result="BackgroundImageFix"/>
      <feColorMatrix in="SourceAlpha" type="matrix" values="0 0 0 0 0 0 0 0 0 0 0 0 0 0 0 0 0 0 127 0" result="hardAlpha"/>
      <feOffset dy="0.281606"/>
      <feGaussianBlur stdDeviation="0.540812"/>
      <feComposite in2="hardAlpha" operator="out"/>
      <feColorMatrix type="matrix" values="0 0 0 0 0.220722 0 0 0 0 0.210451 0 0 0 0 0.241667 0 0 0 0.6 0"/>
      <feBlend mode="normal" in2="BackgroundImageFix" result="effect1_dropShadow_2164_2166"/>
      <feBlend mode="normal" in="SourceGraphic" in2="effect1_dropShadow_2164_2166" result="shape"/>
    </filter>
    <filter id="filter7_f_2164_2166" x="0.216313" y="12.6314" width="27.0439" height="11.4993" filterUnits="userSpaceOnUse" color-interpolation-filters="sRGB">
      <feFlood flood-opacity="0" result="BackgroundImageFix"/>
      <feBlend mode="normal" in="SourceGraphic" in2="BackgroundImageFix" result="shape"/>
      <feGaussianBlur stdDeviation="0.127195" result="effect1_foregroundBlur_2164_2166"/>
    </filter>
    <filter id="filter8_d_2164_2166" x="20.2885" y="2.26113" width="7.65252" height="7.78802" filterUnits="userSpaceOnUse" color-interpolation-filters="sRGB">
      <feFlood flood-opacity="0" result="BackgroundImageFix"/>
      <feColorMatrix in="SourceAlpha" type="matrix" values="0 0 0 0 0 0 0 0 0 0 0 0 0 0 0 0 0 0 127 0" result="hardAlpha"/>
      <feOffset dy="0.554677"/>
      <feGaussianBlur stdDeviation="1.06523"/>
      <feComposite in2="hardAlpha" operator="out"/>
      <feColorMatrix type="matrix" values="0 0 0 0 0.296824 0 0 0 0 0.244184 0 0 0 0 0.404167 0 0 0 0.6 0"/>
      <feBlend mode="normal" in2="BackgroundImageFix" result="effect1_dropShadow_2164_2166"/>
      <feBlend mode="normal" in="SourceGraphic" in2="effect1_dropShadow_2164_2166" result="shape"/>
    </filter>
    <linearGradient id="paint1_linear_2164_2166" x1="31.3515" y1="1.76142" x2="31.6627" y2="1.7677" gradientUnits="userSpaceOnUse">
      <stop stop-color="#26A4FF"/>
      <stop offset="1" stop-color="#0D9AFF"/>
    </linearGradient>
    <linearGradient id="paint2_linear_2164_2166" x1="5.30238" y1="5.57208" x2="6.10973" y2="5.58843" gradientUnits="userSpaceOnUse">
      <stop stop-color="#26A4FF"/>
      <stop offset="1" stop-color="#0D9AFF"/>
    </linearGradient>
    <linearGradient id="paint3_linear_2164_2166" x1="1.12025" y1="17.9404" x2="1.92761" y2="17.9566" gradientUnits="userSpaceOnUse">
      <stop stop-color="#26A4FF"/>
      <stop offset="1" stop-color="#0D9AFF"/>
    </linearGradient>
    <linearGradient id="paint4_linear_2164_2166" x1="25.1609" y1="21.3356" x2="25.9682" y2="21.352" gradientUnits="userSpaceOnUse">
      <stop stop-color="#26A4FF"/>
      <stop offset="1" stop-color="#0D9AFF"/>
    </linearGradient>
    <linearGradient id="paint5_linear_2164_2166" x1="6.38037" y1="14.472" x2="6.69158" y2="14.4782" gradientUnits="userSpaceOnUse">
      <stop stop-color="#26A4FF"/>
      <stop offset="1" stop-color="#0D9AFF"/>
    </linearGradient>
    <linearGradient id="paint6_linear_2164_2166" x1="12.2929" y1="1.22933" x2="12.7819" y2="1.23921" gradientUnits="userSpaceOnUse">
      <stop stop-color="#26A4FF"/>
      <stop offset="1" stop-color="#0D9AFF"/>
    </linearGradient>
    <linearGradient id="paint7_linear_2164_2166" x1="4.17747" y1="11.3173" x2="1.74065" y2="11.7212" gradientUnits="userSpaceOnUse">
      <stop stop-color="#26A4FF"/>
      <stop offset="1" stop-color="#0D9AFF"/>
    </linearGradient>
    <linearGradient id="paint9_linear_2164_2166" x1="1.18252" y1="24.8028" x2="0.114127" y2="21.7888" gradientUnits="userSpaceOnUse">
      <stop stop-color="#3F5FFF"/>
      <stop offset="1" stop-color="#3F5FFF" stop-opacity="0"/>
    </linearGradient>
    <linearGradient id="paint10_linear_2164_2166" x1="1.18252" y1="24.8025" x2="0.114127" y2="21.7886" gradientUnits="userSpaceOnUse">
      <stop stop-color="#1DA0FF"/>
      <stop offset="1" stop-color="#199FFF" stop-opacity="0.13"/>
    </linearGradient>
    <linearGradient id="paint11_linear_2164_2166" x1="25.733" y1="5.65576" x2="22.3517" y2="5.25926" gradientUnits="userSpaceOnUse">
      <stop stop-color="#26A4FF"/>
      <stop offset="1" stop-color="#0D9AFF"/>
    </linearGradient>
    <style bx:fonts="Chakra Petch">@import url(https://fonts.googleapis.com/css2?family=Chakra+Petch%3Aital%2Cwght%400%2C300%3B0%2C400%3B0%2C500%3B0%2C600%3B0%2C700%3B1%2C300%3B1%2C400%3B1%2C500%3B1%2C600%3B1%2C700&amp;display=swap);</style>
  </defs>
  <text style="fill: rgb(105, 112, 250); font-family: 'Chakra Petch'; font-size: 24.9453px; line-height: 38.0983px; white-space: pre;" transform="matrix(1.05647, 0, 0, 0.88193, 1.114633, 1.011769)" x="28.246" y="23.484">PIXELWISE</text>
</svg>